<?xml version="1.0" standalone="no"?><svg xmlns="http://www.w3.org/2000/svg" width="4cm" height="4cm" viewBox="-0.1 -0.1 4.200000 4.200000"><g style="stroke-width:.1; stroke:black; stroke-linejoin:miter; stroke-linecap:butt; "><rect x="0.3" y="3.3" width="0.4" height="0.4" style="fill:red;stroke:red;stroke-width:0.61;fill-opacity:0.1;stroke-opacity:0.9" /><rect x="0.3" y="2.3" width="0.4" height="0.4" style="fill:red;stroke:red;stroke-width:0.61;fill-opacity:0.1;stroke-opacity:0.9" /><rect x="0.3" y="1.3" width="0.4" height="0.4" style="fill:red;stroke:red;stroke-width:0.61;fill-opacity:0.1;stroke-opacity:0.9" /><rect x="0.3" y="0.3" width="0.4" height="0.4" style="fill:red;stroke:red;stroke-width:0.61;fill-opacity:0.1;stroke-opacity:0.9" /><rect x="1.3" y="0.3" width="0.4" height="0.4" style="fill:red;stroke:red;stroke-width:0.61;fill-opacity:0.1;stroke-opacity:0.9" /><rect x="2.3" y="0.3" width="0.4" height="0.4" style="fill:red;stroke:red;stroke-width:0.61;fill-opacity:0.1;stroke-opacity:0.9" /><rect x="3.3" y="0.3" width="0.4" height="0.4" style="fill:red;stroke:red;stroke-width:0.61;fill-opacity:0.1;stroke-opacity:0.9" /><rect x="3.3" y="1.3" width="0.4" height="0.4" style="fill:red;stroke:red;stroke-width:0.61;fill-opacity:0.1;stroke-opacity:0.9" /><rect x="2.3" y="1.3" width="0.4" height="0.4" style="fill:red;stroke:red;stroke-width:0.61;fill-opacity:0.1;stroke-opacity:0.9" /><rect x="1.3" y="1.3" width="0.4" height="0.4" style="fill:red;stroke:red;stroke-width:0.61;fill-opacity:0.1;stroke-opacity:0.9" /><rect x="1.3" y="2.3" width="0.4" height="0.4" style="fill:red;stroke:red;stroke-width:0.61;fill-opacity:0.1;stroke-opacity:0.9" /><rect x="1.3" y="3.3" width="0.4" height="0.4" style="fill:red;stroke:red;stroke-width:0.61;fill-opacity:0.1;stroke-opacity:0.9" /><rect x="3.3" y="2.3" width="0.4" height="0.4" style="fill:red;stroke:red;stroke-width:0.61;fill-opacity:0.1;stroke-opacity:0.9" /> <polyline points="0,0 1,0"/>
 <polyline points="0,0 0,1"/>
 <polyline points="1,0 2,0"/>
 <polyline points="1,1 2,1"/>
 <polyline points="2,0 3,0"/>
 <polyline points="2,1 3,1"/>
 <polyline points="3,1 4,1"/>
 <polyline points="4,0 4,1"/>
 <polyline points="0,1 0,2"/>
 <polyline points="1,1 1,2"/>
 <polyline points="1,1 2,1"/>
 <polyline points="1,1 1,2"/>
 <polyline points="2,1 3,1"/>
 <polyline points="2,2 3,2"/>
 <polyline points="3,1 4,1"/>
 <polyline points="4,1 4,2"/>
 <polyline points="0,2 0,3"/>
 <polyline points="1,2 1,3"/>
 <polyline points="1,2 1,3"/>
 <polyline points="2,2 2,3"/>
 <polyline points="2,2 3,2"/>
 <polyline points="2,2 2,3"/>
 <polyline points="3,2 3,3"/>
 <polyline points="3,3 4,3"/>
 <polyline points="3,2 3,3"/>
 <polyline points="0,4 1,4"/>
 <polyline points="0,3 0,4"/>
 <polyline points="1,4 2,4"/>
 <polyline points="2,4 3,4"/>
 <polyline points="3,3 4,3"/>
 <polyline points="3,4 4,4"/>
 <polyline points="4,3 4,4"/>
</g></svg>